<svg id="Layer_1" data-name="Layer 1" xmlns="http://www.w3.org/2000/svg" viewBox="0 0 735.91 252.63"><defs><style>.cls-1,.cls-6{fill:#f26c38;}.cls-2{fill:#fff;}.cls-3{fill:#fccc00;}.cls-4{fill:#fcdf68;}.cls-5{fill:#e2e2e2;}.cls-6{stroke:#f7ecd4;stroke-miterlimit:10;stroke-width:4px;}.cls-7{fill:#ed8869;}.cls-8{fill:#c13f31;}.cls-9{fill:#b6312a;}.cls-10{fill:#cc523a;}.cls-11{fill:#9b1f1c;}</style></defs><circle class="cls-1" cx="151.58" cy="126.32" r="126.32"/><path class="cls-2" d="M247.11,134.84c0,12.94-6.64,30.55-12.44,41.16-7.85,14.34-20.59,17.35-35.62,24-9.21,4.08-23.88,14.52-34.61,14.52-28.84,0-54.27-19.29-66.66-43.26C92.48,161,96.3,147.5,96.3,135.17c0-20-.71-36.75,11.55-49.44,13-13.4,37.51-21.43,58.65-21.43,15.44,0,40.27-4.78,52.17,3.26,12.2,8.24,15.71,22.91,19,38.66C239.66,116.05,247.11,125,247.11,134.84Z" transform="translate(-17.34 -9.63)"/><circle class="cls-3" cx="151.58" cy="126.32" r="30.13"/><path class="cls-4" d="M190.37,138.61a21.85,21.85,0,0,1-1.83,8.6,22.24,22.24,0,0,1-5.22,7.31,18.19,18.19,0,0,1-7.82,4.69,15.19,15.19,0,0,1-9-.28.16.16,0,0,1-.09-.2.16.16,0,0,1,.11-.1,45.18,45.18,0,0,0,8.06-2.27,30.32,30.32,0,0,0,7.19-3.67,22.25,22.25,0,0,0,8.31-14.1.15.15,0,0,1,.17-.12A.14.14,0,0,1,190.37,138.61Z" transform="translate(-17.34 -9.63)"/><path class="cls-5" d="M584.07,109.09l.54-37.39a4.21,4.21,0,0,0,3.45-4.15l1-15.81a1,1,0,0,0-1-1.08h-.19a1.15,1.15,0,0,0-1.15,1.08c-.17,2.75-.6,9.89-.75,12.57a1.17,1.17,0,0,1-1.1,1.09h0a1,1,0,0,1-1-1l.73-12.82a1,1,0,0,0-.92-1.07h-.11a1.15,1.15,0,0,0-1.21,1.06l-.88,12.67a1.15,1.15,0,0,1-1.19,1.06h-.18c-.56,0-.82-.77-.79-1.34L580,51.43c0-.57-.54-.77-1.1-.8a1.16,1.16,0,0,0-1.18,1.08l-1,15.79a3.92,3.92,0,0,0,3.69,4.41h0l-.69,35.22c0,.08,0,1.88,0,1.88a2,2,0,0,0,2.14,2l.25,0A1.77,1.77,0,0,0,584.07,109.09Z" transform="translate(-17.34 -9.63)"/><path class="cls-6" d="M385.56,151.65a148.78,148.78,0,0,1-29.84,0c-7.47-.78-14.15-5.68-15.15-16.26a44.34,44.34,0,0,1,0-10.8c1-10.91,7.68-15.37,15.15-16.15a148.78,148.78,0,0,1,29.84,0c7.13.78,14.14,5.24,15.14,16.15a43.36,43.36,0,0,1,0,10.8C399.7,146,392.69,150.87,385.56,151.65ZM400.7,99.54c0,4-2.33,6.68-5.9,6.68H346.47c-3.67,0-6-2.67-6-6.68V96c0-4,2.34-6.68,6-6.68h4.79c4.23,0,7.35-6,11.47-6h15c4.24,0,7.35,6,11.47,6h5.46c3.68,0,6,2.67,6,6.68Zm30.74,77.28c0,4.68-2.79,7.79-7,7.79H347.59c-4.24,0-7-3.11-7-7.79V161.34c0-4.68,2.78-7.8,7-7.8H362.4c6.79,0,8.24,12,15,12h47c4.23,0,7,3.12,7,7.8Zm-58.69-42a12.82,12.82,0,0,0,0-9.13h-3.11a14.27,14.27,0,0,1,0,9.13ZM431.44,155c0,4.68-2.79,7.8-7,7.8H410.73c-4.24,0-7-3.12-7-7.8V93.52c0-4.67,2.78-7.79,7-7.79h13.69c4.23,0,7,3.12,7,7.79v9.36c0,4.67,6.9,4.45,6.9,9.13v16.92c0,4.68-6.9,4.46-6.9,9.14Z" transform="translate(-17.34 -9.63)"/><path class="cls-6" d="M452.37,184.61c-4.23,0-7-3.11-7-7.79V163.23c0-4.67,4.23-7.68,5.79-12a27.6,27.6,0,0,0,1.22-9.25V114.9c-4.23,0-7-3.11-7-7.79V93.52c0-4.67,2.78-7.79,7-7.79h17.15c4.23,0,7,3.12,7,7.79v63.37c0,20-11.25,27.72-23.72,27.72Zm26.06-7.79V163.23c0-4.67,4.23-7.68,5.79-12a27.6,27.6,0,0,0,1.22-9.25V114.9h-.11c-3.56,0-5.9-2.67-5.9-6.68V93.52c0-4.67,2.79-7.79,7-7.79h16.14c4.24,0,7,3.12,7,7.79v63.37c0,20-11.8,27.72-24.17,27.72C481.21,184.61,478.43,181.5,478.43,176.82Zm61.25,0c0,4.68-2.79,7.79-7,7.79H519.52c-4.23,0-7-3.11-7-7.79V93.52c0-4.67,2.79-7.79,7-7.79h13.14c4.23,0,7,3.12,7,7.79Z" transform="translate(-17.34 -9.63)"/><path class="cls-6" d="M613.61,161.45c-.44,11.25-6.79,22.27-18.59,23.16a135,135,0,0,1-23.27,0c-12-.89-19.38-11.91-19.83-23.16a460.8,460.8,0,0,1,0-52.56c.45-11.25,7.8-22.27,19.83-23.16a135,135,0,0,1,23.27,0c11.8.89,18.15,11.69,18.59,23.16.12,2.78.23,4.9.23,7.24h2.45V93.52c0-4.67,2.78-7.79,7-7.79h15.15c4.23,0,7,3.12,7,7.79v83.3c0,4.68-2.78,7.79-7,7.79H623.3c-4.23,0-7-3.11-7-7.79V148.65h-2.23Zm-29.28-2.67a167.48,167.48,0,0,0,0-47.22H581.1a176.92,176.92,0,0,1,0,47.22Z" transform="translate(-17.34 -9.63)"/><path class="cls-6" d="M681,176.82c0,4.68-2.89,7.79-7,7.79h-9c-4.23,0-7-3.11-7-7.79V93.52c0-4.67,2.79-7.79,7-7.79h9c4.12,0,7,3.12,7,7.79v18.15a3,3,0,0,1-2.89,3.23H678v40.54h.11a3,3,0,0,1,2.89,3.23Zm25.17,0c0,4.68-2.78,7.79-7,7.79h-8.69c-4.23,0-7-3.11-7-7.79V93.52c0-4.67,2.79-7.79,7-7.79h8.69c4.23,0,7,3.12,7,7.79v18.6a2.51,2.51,0,0,1-2.56,2.78h-.11v40.54h.11a2.51,2.51,0,0,1,2.56,2.78Zm45.1,0c0,4.68-2.78,7.79-7,7.79h-6c-4.12,0-7-3.11-7-7.79V149.76h-2.45v27.06c0,4.68-2.79,7.79-7,7.79h-6c-4.23,0-7-3.11-7-7.79V93.52c0-4.67,2.79-7.79,7-7.79h6c4.23,0,7,3.12,7,7.79v23.72h2.45V93.52c0-4.67,2.89-7.79,7-7.79h6c4.23,0,7,3.12,7,7.79Z" transform="translate(-17.34 -9.63)"/><path class="cls-7" d="M100.58,68.5a96.44,96.44,0,0,1,75.92-29A94.4,94.4,0,0,1,193.13,42a97.86,97.86,0,0,1,70.46,66.57,97.86,97.86,0,0,1-21.24,94.83,100.41,100.41,0,0,1-26.61,20.69,97.79,97.79,0,0,1-96.89-2.75,97,97,0,0,1-41.44-51.29,96.88,96.88,0,0,1-5.29-32.87,101.16,101.16,0,0,0,1.67,16.57,93.12,93.12,0,0,0,4.37,16,97.53,97.53,0,0,0,16.59,28.57,98.52,98.52,0,0,0,25.07,21.37,96.59,96.59,0,0,0,30.74,11.64,94.78,94.78,0,0,0,16.38,1.67,95.77,95.77,0,0,0,90.75-59.24A95.74,95.74,0,0,0,246.3,80.1a99.58,99.58,0,0,0-23.66-22.73,96.26,96.26,0,0,0-30-13.51,98.11,98.11,0,0,0-32.84-2.62,97,97,0,0,0-31.93,8.47A100.4,100.4,0,0,0,100.58,68.5Z" transform="translate(-17.34 -9.63)"/><path class="cls-5" d="M328.68,212.75,241,110.89c4.79-5.38,4.85-12.55,0-18.86l-34.8-44.87a3.86,3.86,0,0,0-5.36-.73l-.56.41a3.87,3.87,0,0,0-.73,5.49c6.1,7.77,21.9,27.93,27.86,35.51a3.89,3.89,0,0,1-.56,5.38l-.08.06a3.78,3.78,0,0,1-5.4-.54L192.79,56.6a3.88,3.88,0,0,0-5.16-.83l-.34.22a3.86,3.86,0,0,0-.93,5.58l27.71,36.05a3.87,3.87,0,0,1-.87,5.55l-.54.37c-1.68,1.16-4.17-.25-5.44-1.85l-27.87-35c-1.27-1.6-3.37-.87-5,.31a3.87,3.87,0,0,0-.83,5.54l34.83,44.77c5.3,6.85,14.78,8.46,21.06,3.59l0,0,82.08,96.36c.18.25,4.47,5.09,4.47,5.09a7.7,7.7,0,0,0,10.9.61c.17-.15.5-.46.68-.6C333.84,217.5,328.56,212.61,328.68,212.75Z" transform="translate(-17.34 -9.63)"/><path class="cls-8" d="M603.93,45.3s3.33-1.7,1.89-1.7c0,0,.43-.84-.71-1.14,0,0,0-.79-.63-.85,0,0-.26-.75-.86-.58a6.24,6.24,0,0,0-1.19,3.4Z" transform="translate(-17.34 -9.63)"/><path class="cls-8" d="M563.09,44.32s-3.24-1.86-1.81-1.79c0,0-.39-.86.77-1.11,0,0,.06-.78.66-.81,0,0,.3-.74.9-.54a6.19,6.19,0,0,1,1,3.45Z" transform="translate(-17.34 -9.63)"/><path class="cls-9" d="M604.28,45.11s.79-.51,1.08-.65c0,0-.54-.14-.38-.56l-.67-.32a.94.94,0,0,0-.81-.65,1.88,1.88,0,0,1-.38-1.13,6.44,6.44,0,0,0-.58,2.39Z" transform="translate(-17.34 -9.63)"/><path class="cls-9" d="M563.05,44.31l-.91-.58s.47-.1.35-.51l.59-.28a.86.86,0,0,1,.74-.58,2.18,2.18,0,0,0,.37-1.12,4.64,4.64,0,0,1,.28,1.92Z" transform="translate(-17.34 -9.63)"/><path class="cls-8" d="M570.78,44.4s3,6,12.86,6.05c0,0,8.27.57,13.22-5.42a4.46,4.46,0,0,1,6.47-1.37A4.56,4.56,0,0,1,605,48.19s-.07,2.68-4.78,6.41A22.27,22.27,0,0,1,590,59.3a24.34,24.34,0,0,1-12.31,0s-7.22-1.7-10.61-5.11c0,0-4.94-4.52-4.77-7.61,0,0,.11-4.51,4.23-4.63C566.54,42,568.87,41.35,570.78,44.4Z" transform="translate(-17.34 -9.63)"/><path class="cls-9" d="M562.31,46.53s6.66,12.15,20.18,11.8c0,0,10.53.93,16.46-4.6,0,0,4.79-3.58,6-7.45,0,0,1.12,3-2.79,6.41,0,0-6.13,6.34-13.36,6.84,0,0-4.79,1.55-12.76-.55,0,0-6.69-1.52-10.4-6.18C565.66,52.8,562.26,50.06,562.31,46.53Z" transform="translate(-17.34 -9.63)"/><path class="cls-10" d="M567.49,45.69c.62,1.24,3.61,6.55,9.59,7.43a27.77,27.77,0,0,0,13.24,0s6.11-1.13,8.47-5.38a.82.82,0,0,0,.09-.19c.17-.41.7-1.93-.46-2.19a1.49,1.49,0,0,0-1.34.43c-.61.63-2.24,2-6.25,3.86,0,0-4.77,2.38-13.64.46-1.43-.31-5.43-3-7.15-5.62a1.5,1.5,0,0,0-.31-.35c-.65-.55-2.69-2-2.39,1A1.5,1.5,0,0,0,567.49,45.69Z" transform="translate(-17.34 -9.63)"/><path class="cls-11" d="M568,45.78s-2.12-.05-2.79,3.32" transform="translate(-17.34 -9.63)"/><path class="cls-11" d="M570.48,48.6s-2.45,1.48-1.77,4Z" transform="translate(-17.34 -9.63)"/><path class="cls-11" d="M574.37,51a3.87,3.87,0,0,0-1.4,4.16Z" transform="translate(-17.34 -9.63)"/><path class="cls-11" d="M578.41,52.18a3.5,3.5,0,0,0-1.08,4Z" transform="translate(-17.34 -9.63)"/><path class="cls-11" d="M583,53a2.7,2.7,0,0,1,1,2.09,2.72,2.72,0,0,1-.24,1,2.79,2.79,0,0,1-.81,1,2.68,2.68,0,0,1-.76-1.05,2.51,2.51,0,0,1-.19-1,2.54,2.54,0,0,1,.24-1A2.79,2.79,0,0,1,583,53Z" transform="translate(-17.34 -9.63)"/><path class="cls-11" d="M587,52.39s2,2.79.7,4.35Z" transform="translate(-17.34 -9.63)"/><path class="cls-11" d="M591.83,50.9a3.92,3.92,0,0,1,1.25,4.38Z" transform="translate(-17.34 -9.63)"/><path class="cls-11" d="M595.4,48.4s2.63,1.31,2.2,3.75Z" transform="translate(-17.34 -9.63)"/><path class="cls-11" d="M598.7,46.13a3.13,3.13,0,0,1,3,3.22Z" transform="translate(-17.34 -9.63)"/><path class="cls-5" d="M146.86,60.07C134.35,51.25,114,58.51,101.5,76.29,91.37,90.66,94,105.5,95.27,118.35l-72.22,91c-.22.23-4.14,5.36-4.14,5.36a7.7,7.7,0,0,0,1.49,10.82c.19.14.56.4.73.55,6,5.26,9.77-.86,9.65-.72l77.1-101.49c19.28,1,26.73-1.77,38.93-15.65C161.17,91.9,159.37,68.9,146.86,60.07Z" transform="translate(-17.34 -9.63)"/></svg>