<?xml version="1.0" encoding="iso-8859-1"?>
<!-- Generator: Adobe Illustrator 19.0.0, SVG Export Plug-In . SVG Version: 6.00 Build 0)  -->
<svg version="1.1" id="Layer_1" xmlns="http://www.w3.org/2000/svg" xmlns:xlink="http://www.w3.org/1999/xlink" x="0px" y="0px"
	 viewBox="0 0 368.115 368.115" style="enable-background:new 0 0 368.115 368.115;" xml:space="preserve">
<g id="XMLID_838_">
	<g id="XMLID_847_">
		<g id="XMLID_848_">
			<circle id="XMLID_850_" style="fill:#5FD2DB;" cx="184.057" cy="25.419" r="25.419"/>
			<circle id="XMLID_851_" style="fill:#5FD2DB;" cx="184.057" cy="66.63" r="25.419"/>
		</g>
		<g id="XMLID_853_">
			<circle id="XMLID_854_" style="fill:#5FD2DB;" cx="146.91" cy="46.024" r="25.419"/>
			<circle id="XMLID_855_" style="fill:#5FD2DB;" cx="221.205" cy="46.024" r="25.419"/>
		</g>
	</g>
	<g id="XMLID_859_">
		<g id="XMLID_857_">
			<rect id="XMLID_858_" x="172.532" y="56.167" style="fill:#5FD2DB;" width="23.05" height="55.319"/>
		</g>
	</g>
	<g id="XMLID_839_">
		<path id="XMLID_842_" style="fill:#FFA250;" d="M235.166,140.276L202.27,352.139c-2.794,21.301-33.632,21.301-36.426,0
			l-7.667-49.408l-2.615-16.805l-6.565-42.276l-2.605-16.805l-6.565-42.276l-2.615-16.805l-4.264-27.487
			c-2.636-20.082,13.003-37.896,33.253-37.896h35.711C222.163,102.38,237.803,120.194,235.166,140.276z"/>
		<g id="XMLID_843_">
			<path id="XMLID_844_" style="fill:#FF5959;" d="M184.057,176.166c0,2.311-0.945,4.411-2.468,5.934
				c-1.523,1.523-3.624,2.468-5.934,2.468h-35.827l-2.615-16.805h38.442C180.276,167.763,184.057,171.545,184.057,176.166z"/>
			<path id="XMLID_845_" style="fill:#FF5959;" d="M184.057,235.247c0,2.311-0.945,4.411-2.468,5.934
				c-1.523,1.523-3.624,2.468-5.934,2.468h-26.657l-2.605-16.805h29.262C180.276,226.845,184.057,230.626,184.057,235.247z"/>
			<path id="XMLID_846_" style="fill:#FF5959;" d="M184.057,294.329c0,2.311-0.945,4.411-2.468,5.934
				c-1.523,1.523-3.624,2.468-5.934,2.468h-17.478l-2.615-16.805h20.093C180.276,285.926,184.057,289.707,184.057,294.329z"/>
		</g>
	</g>
</g>
<g>
</g>
<g>
</g>
<g>
</g>
<g>
</g>
<g>
</g>
<g>
</g>
<g>
</g>
<g>
</g>
<g>
</g>
<g>
</g>
<g>
</g>
<g>
</g>
<g>
</g>
<g>
</g>
<g>
</g>
</svg>
