<?xml version="1.0" encoding="utf-8"?>
<!-- Generator: Adobe Illustrator 24.1.2, SVG Export Plug-In . SVG Version: 6.00 Build 0)  -->
<svg version="1.1" id="Layer_1" xmlns="http://www.w3.org/2000/svg" xmlns:xlink="http://www.w3.org/1999/xlink" x="0px" y="0px"
	 viewBox="0 0 24 25.9" style="enable-background:new 0 0 24 25.9;" xml:space="preserve">
<style type="text/css">
	.st0{fill:#A0A0A0;}
</style>
<desc>Created with Sketch.</desc>
<g id="_xD83D__xDD0D_-Product-Icons">
	<g id="ic_fluent_delete_48_regular">
		<path id="_xD83C__xDFA8_-Color" class="st0" d="M12,1c2.4,0,4.3,1.7,4.4,3.8l0,0.2H22c0.5,0,1,0.4,1,0.9c0,0.4-0.4,0.8-0.9,0.9
			l-0.1,0h-0.8l-1.3,15.6c-0.1,1.5-1.6,2.7-3.3,2.7H7.4c-1.7,0-3.1-1.2-3.3-2.7L2.8,6.7H2c-0.5,0-0.9-0.3-1-0.8l0-0.1
			C1,5.4,1.4,5,1.9,5L2,5h5.6C7.6,2.8,9.5,1,12,1z M19.3,6.7H4.7L6,22.2c0.1,0.6,0.6,1.1,1.3,1.1h9.2c0.7,0,1.3-0.5,1.3-1.1
			L19.3,6.7z M14.5,10.3c0.5,0,0.9,0.3,1,0.8l0,0.1v7.6c0,0.5-0.4,0.9-1,0.9c-0.5,0-0.9-0.3-1-0.8l0-0.1v-7.6
			C13.5,10.7,14,10.3,14.5,10.3z M9.5,10.3c0.5,0,0.9,0.3,1,0.8l0,0.1v7.6c0,0.5-0.4,0.9-1,0.9c-0.5,0-0.9-0.3-1-0.8l0-0.1v-7.6
			C8.5,10.7,9,10.3,9.5,10.3z M12,2.7c-1.3,0-2.4,0.9-2.5,2.1l0,0.1h5C14.5,3.7,13.4,2.7,12,2.7z"/>
	</g>
</g>
</svg>
