<svg id="Layer_1" data-name="Layer 1" xmlns="http://www.w3.org/2000/svg" xmlns:xlink="http://www.w3.org/1999/xlink" viewBox="0 0 56.55 56.13"><defs><style>.cls-1{fill:#fff;}.cls-2{fill:#013466;}.cls-3{clip-path:url(#clip-path);}.cls-4{clip-path:url(#clip-path-2);}.cls-5{clip-path:url(#clip-path-3);}.cls-6{clip-path:url(#clip-path-4);}</style><clipPath id="clip-path" transform="translate(-1.06 -0.68)"><path class="cls-1" d="M29.61,26.26v5.27h7.33a6.23,6.23,0,0,1-2.72,4.12v3.42h4.41a13.33,13.33,0,0,0,4.06-10,15.74,15.74,0,0,0-.25-2.79Z"/></clipPath><clipPath id="clip-path-2" transform="translate(-1.06 -0.68)"><path class="cls-1" d="M17.43,31.33v3.53a13.63,13.63,0,0,0,12.18,7.51,13,13,0,0,0,9-3.3l-4.41-3.42A8.24,8.24,0,0,1,29.61,37,8.13,8.13,0,0,1,22,31.33Z"/></clipPath><clipPath id="clip-path-3" transform="translate(-1.06 -0.68)"><path class="cls-1" d="M17.43,22.62a13.64,13.64,0,0,0,0,12.24L22,31.33a8.2,8.2,0,0,1,0-5.18V22.62Z"/></clipPath><clipPath id="clip-path-4" transform="translate(-1.06 -0.68)"><path class="cls-1" d="M17.43,22.62,22,26.15a8.13,8.13,0,0,1,7.63-5.62,7.36,7.36,0,0,1,5.21,2l3.91-3.91a13.1,13.1,0,0,0-9.12-3.55,13.63,13.63,0,0,0-12.18,7.51"/></clipPath></defs><path class="cls-2" d="M57.61,28.75a28.05,28.05,0,0,1-28,28.05h-.44A28.06,28.06,0,0,1,1.06,28.74h0A28.06,28.06,0,0,1,29.12.68h.43A28.06,28.06,0,0,1,57.61,28.74Z" transform="translate(-1.06 -0.68)"/><path class="cls-1" d="M29.61,26.26v5.27h7.33a6.23,6.23,0,0,1-2.72,4.12v3.42h4.41a13.33,13.33,0,0,0,4.06-10,15.74,15.74,0,0,0-.25-2.79Z" transform="translate(-1.06 -0.68)"/><g class="cls-3"><rect class="cls-1" x="20.98" y="18.01" width="28.22" height="27.95"/></g><path class="cls-1" d="M17.43,31.33v3.53a13.63,13.63,0,0,0,12.18,7.51,13,13,0,0,0,9-3.3l-4.41-3.42A8.24,8.24,0,0,1,29.61,37,8.13,8.13,0,0,1,22,31.33Z" transform="translate(-1.06 -0.68)"/><g class="cls-4"><rect class="cls-1" x="8.8" y="23.08" width="36.34" height="26.18"/></g><path class="cls-1" d="M17.43,22.62a13.64,13.64,0,0,0,0,12.24L22,31.33a8.2,8.2,0,0,1,0-5.18V22.62Z" transform="translate(-1.06 -0.68)"/><g class="cls-5"><rect class="cls-1" x="7.35" y="14.37" width="21.14" height="27.38"/></g><path class="cls-1" d="M17.43,22.62,22,26.15a8.13,8.13,0,0,1,7.63-5.62,7.36,7.36,0,0,1,5.21,2l3.91-3.91a13.1,13.1,0,0,0-9.12-3.55,13.63,13.63,0,0,0-12.18,7.51" transform="translate(-1.06 -0.68)"/><g class="cls-6"><rect class="cls-1" x="10.06" y="14.25" width="36.44" height="26.18"/></g></svg>