<svg id="Layer_1" data-name="Layer 1" xmlns="http://www.w3.org/2000/svg" viewBox="0 0 56.55 56.13"><defs><style>.cls-1{fill:#ffe600;}.cls-2{fill:#392020;}</style></defs><path class="cls-1" d="M57.78,29.54A28.05,28.05,0,0,1,29.72,57.59h-.43A28.06,28.06,0,0,1,1.23,29.53h0A28.06,28.06,0,0,1,29.29,1.47h.43A28.06,28.06,0,0,1,57.78,29.53Z" transform="translate(-1.23 -1.47)"/><path class="cls-2" d="M29.5,15.14c-9.2,0-16.66,5.89-16.66,13.16,0,4.68,3.09,8.77,7.73,11.11L19,45.27a.48.48,0,0,0,.75.53l6.75-4.56a21.18,21.18,0,0,0,3,.22c9.2,0,16.66-5.89,16.66-13.16S38.7,15.14,29.5,15.14" transform="translate(-1.23 -1.47)"/></svg>