<?xml version="1.0" encoding="utf-8"?>
<!-- Generator: Adobe Illustrator 24.1.2, SVG Export Plug-In . SVG Version: 6.00 Build 0)  -->
<svg version="1.1" id="Capa_1" xmlns="http://www.w3.org/2000/svg" xmlns:xlink="http://www.w3.org/1999/xlink" x="0px" y="0px"
	 viewBox="0 0 239.8 239.8" style="enable-background:new 0 0 239.8 239.8;" xml:space="preserve">
<style type="text/css">
	.st0{fill:#F26C38;}
</style>
<g>
	<path class="st0" d="M237.7,161.5c-4.3-7.1-13.5-9.4-20.6-5.1c-25.6,15.4-63.2,20.2-100.7,12.8c-38.2-7.5-71.5-26.7-89.2-51.2
		c-4.8-6.7-14.2-8.3-20.9-3.4s-8.3,14.2-3.4,20.9c22.3,31,61.6,54,107.8,63.1c13.7,2.7,27.3,4,40.6,4c30.5,0,58.9-7,81.4-20.6
		C239.7,177.8,242,168.6,237.7,161.5z"/>
	<path class="st0" d="M77.9,89c14.2,2.8,27.9-6.4,30.7-20.6c2.8-14.2-6.4-27.9-20.6-30.7C73.8,34.9,60,44.1,57.3,58.3
		C54.5,72.4,63.7,86.2,77.9,89z"/>
	<path class="st0" d="M182.4,109.6c14.2,2.8,27.9-6.4,30.7-20.6c2.8-14.2-6.4-27.9-20.6-30.7c-14.2-2.8-27.9,6.4-30.7,20.6
		C159,93,168.3,106.8,182.4,109.6z"/>
</g>
</svg>
