<?xml version="1.0" encoding="utf-8"?>
<!-- Generator: Adobe Illustrator 24.1.2, SVG Export Plug-In . SVG Version: 6.00 Build 0)  -->
<svg version="1.1" id="Layer_1" xmlns="http://www.w3.org/2000/svg" xmlns:xlink="http://www.w3.org/1999/xlink" x="0px" y="0px"
	 viewBox="0 0 268.7 268.7" style="enable-background:new 0 0 268.7 268.7;" xml:space="preserve">
<style type="text/css">
	.st0{fill:#FFFFFF;}
	.st1{fill:#F59D00;}
	.st2{fill:#414042;}
</style>
<g>
	
		<ellipse transform="matrix(6.208393e-03 -1 1 6.208393e-03 -70.5878 337.1629)" class="st0" cx="134.3" cy="204.1" rx="49.1" ry="28.4"/>
	<g>
		<path class="st1" d="M135.5,15.5L135.5,15.5c-14.4-0.1-25.8,12.2-24.6,26.6l9.9,119c4.1-3.9,8.8-6.1,13.9-6.1s9.7,2.3,13.8,6.3
			l11.4-118.9C161.2,28,149.9,15.6,135.5,15.5z M143.7,38.6c0,4.6-3.8,8.3-8.4,8.3s-8.3-3.8-8.3-8.4s3.8-8.3,8.4-8.3
			C140,30.3,143.7,34,143.7,38.6z"/>
		<g>
			<path class="st2" d="M135.5,10.1c-17.6-0.1-31.4,14.9-30,32.4l9.7,116.6c-10.4,11.4-14.6,29.3-14.7,44.8
				c-0.2,29.4,13.9,54.5,33.5,54.7c19,0.1,33.9-23.7,34.1-54.2c0.1-15.5-3.9-33.4-14.1-45l11.1-116.5
				C166.8,25.4,153.1,10.2,135.5,10.1z M157.4,204.2c-0.2,24.4-11.4,43.7-23.4,43.6c-12.2-0.1-23-19.9-22.8-43.9
				c0.1-18.8,8.6-43.7,23.4-43.6C150.7,160.4,157.5,188,157.4,204.2z M154.5,41.9L144,151.7c-2.8-1.3-6-2.1-9.3-2.1
				c-3.1,0-6.3,0.6-9.3,2l-9.1-110c-0.9-11.3,8-20.9,19.3-20.8C146.8,20.9,155.6,30.6,154.5,41.9z"/>
			<path class="st2" d="M121.7,38.5c0,7.5,6,13.7,13.6,13.7c7.5,0,13.7-6,13.7-13.6c0-7.5-6-13.7-13.6-13.7
				C127.9,24.8,121.8,30.9,121.7,38.5z M138.3,38.6c0,1.6-1.4,3-3,2.9c-1.6,0-3-1.4-2.9-3c0-1.6,1.4-3,3-2.9
				C137,35.6,138.3,36.9,138.3,38.6z"/>
		</g>
	</g>
</g>
</svg>
