<?xml version="1.0" encoding="utf-8"?>
<!-- Generator: Adobe Illustrator 24.1.2, SVG Export Plug-In . SVG Version: 6.00 Build 0)  -->
<svg version="1.1" id="Layer_1" xmlns="http://www.w3.org/2000/svg" xmlns:xlink="http://www.w3.org/1999/xlink" x="0px" y="0px"
	 viewBox="0 0 268.7 268.7" style="enable-background:new 0 0 268.7 268.7;" xml:space="preserve">
<style type="text/css">
	.st0{fill:#FFFFFF;}
	.st1{fill:#F59D00;}
	.st2{fill:#414042;}
</style>
<g>
	
		<ellipse transform="matrix(0.6343 -0.7731 0.7731 0.6343 -126.7732 134.8221)" class="st0" cx="79.1" cy="201.4" rx="59.9" ry="41.9"/>
	<g>
		<path class="st1" d="M224.6,23.3L224.6,23.3c-16.5-13.4-39-12.3-48.6,2.5L96.4,148c7.7,0.1,14.8,2.4,20.7,7.1s9.4,11.2,11.1,18.8
			l104-102.4C244.6,59,241.1,36.7,224.6,23.3z M216.3,52.8c-3.5,4.4-10.7,4.4-16,0.1s-6.7-11.3-3.1-15.7s10.7-4.4,16-0.1
			C218.4,41.5,219.9,48.5,216.3,52.8z"/>
		<g>
			<path class="st2" d="M228.7,18.2c-20.2-16.4-47.5-14.9-59.3,3L91.5,140.9c-20.7,1.2-39.2,14.3-51.1,28.9
				c-22.7,27.7-25.6,64.6-3.2,83c21.8,17.7,57.1,8.9,80.7-19.9c12-14.6,21-35.3,18.1-55.8L237.7,76.7
				C253,61.7,248.9,34.6,228.7,18.2z M105.6,222.8c-18.9,23-46.5,31-60.2,19.8c-14-11.4-11.3-40.2,7.3-62.8
				c14.5-17.8,43.3-33.6,60.2-19.8C131.4,175,118.1,207.5,105.6,222.8z M226.3,66l-96,94.6c-2.2-3.8-5.3-7.5-9.1-10.6
				c-3.6-2.9-7.7-5.3-12.2-6.7l73.6-112.9c7.6-11.6,25.2-12.4,38.1-1.9C233.4,38.9,236.2,56.2,226.3,66z"/>
			<path class="st2" d="M191.1,32.4c-5.7,7.1-3.6,18.6,5.2,25.6c8.6,6.9,20.4,7,26.2-0.2c5.7-7.1,3.6-18.6-5.2-25.6
				C208.7,25.1,197,25.2,191.1,32.4z M210.1,47.8c-1.2,1.5-3.9,1.6-5.7,0c-1.8-1.5-2.4-4.1-1-5.5c1.2-1.5,3.9-1.6,5.7,0
				C210.9,43.8,211.4,46.2,210.1,47.8z"/>
		</g>
	</g>
</g>
</svg>
